<?xml version="1.0" standalone="no"?>
<svg xmlns="http://www.w3.org/2000/svg" viewBox="0 0 191.896 52" width="191.896" height="52"><rect fill="none" stroke="#ffb39f" stroke-width="3" width="188.896" height="49" x="1.5" y="1.5"></rect><g fill="#9a1212" color="#9a1212" transform="translate(12, 11.999999999999998) scale(0.2800001)"><svg width="100.0" height="100.0" x="0.0" y="0.0" viewBox="0 0 100 100"><path d="M42.793,20.007c0,0-0.369,0.429-0.737,1.129C42.058,21.138,42.955,21.225,42.793,20.007z"></path><path fill="currentColor" d="M145.922,45.073c-0.115-0.055-0.275-0.115-0.461-0.176c0.157,0.057,0.309,0.116,0.459,0.176  C145.922,45.073,145.922,45.073,145.922,45.073z"></path><g><path d="M64.119,24.702c0.365-2.023-0.01-3.758-1.117-5.158c-2.596-3.281-8.281-3.624-8.883-3.653   c-4.539-1.672-8.212-1.876-10.918-0.606c-2.068,0.97-2.88,2.499-3.094,2.98c-0.287,0.054-0.571,0.12-0.851,0.194   c-1.591-1.49-3.344-4.392-4.383-10.032c0,0,0.458-0.809,0.277-2.556c0,0-1.94-0.315-1.62,1.671c0,0,1.004,6.544,5.275,11.045   c-2.726,0.852-4.922,2.588-5.331,2.925c-2.02,0.066-4.089,0.181-6.215,0.361l-3.186,40.316l52.944-33.115   C77.018,29.074,72.35,26.776,64.119,24.702z M61.499,31.58c0,0-0.36,8.281-12.347,6.1c0,0-7.243,4.322-10.348-2.682   c-2.478,1.71-7.027-0.096-5.391-5.149c-0.569-0.71-2.812-4.938,0.759-8.204c0.828-0.624,2.794-1.974,5.058-2.626   c0.011,0.012,0.022,0.023,0.033,0.033c0.818,0.789,1.742,1.502,2.792,2.084l0,0c-0.045,0.085-0.089,0.176-0.133,0.271l0,0   c-0.001,0.003-0.002,0.007-0.004,0.009c-0.02,0.043-0.041,0.081-0.06,0.127c0.002,0,0.003,0,0.005,0   c-0.47,1.114-0.835,2.775-0.083,4.388c0,0,8.168,7.157,12.302,1.215c0,0,0.857-2.242,0.309-4.572   c-0.015-0.003-0.031-0.005-0.045-0.006c-0.449-1.694-1.662-3.499-4.502-4.725c0,0-4.25-2.428-7.053,2.166   c0,0.007,0,0.012,0.001,0.019c-0.554-0.019-1.785-0.173-3.012-1.117c-0.011-0.009-0.02-0.018-0.03-0.025   c0.194-0.046,0.391-0.085,0.589-0.118l0.155-0.025l0.052-0.149c0.007-0.016,0.666-1.794,2.894-2.832   c2.579-1.203,6.123-0.985,10.533,0.646l0.039,0.016l0.043,0.002c0.061,0.001,5.993,0.252,8.528,3.453   c1.005,1.271,1.344,2.856,1.013,4.716c-0.125,0.548-0.316,1.132-0.582,1.758C63.016,26.349,67.562,30.427,61.499,31.58z"></path><polygon points="25.351,74.245 76.001,40.29 77.018,29.932 24.073,63.087  "></polygon><polygon points="26.992,93.23 74.834,57.207 75.48,47.83 26.038,82.18  "></polygon></g></svg></g><path fill="#9a1212" fill-rule="nonzero" d="M6.24 0.34L6.24 1.97L6.96 1.94Q11.06 1.97 13.34 3.50Q15.62 5.04 15.62 7.87Q15.62 10.70 13.80 12.30Q11.98 13.90 8.98 13.90L8.98 13.90Q7.61 13.90 6.34 13.39L6.34 13.39L6.34 16.94Q6.34 19.75 5.64 21.11Q4.94 22.46 3.26 22.46L3.26 22.46Q2.35 22.46 1.85 21.70Q1.34 20.93 1.34 19.51L1.34 19.51Q1.34 16.90 4.08 14.23L4.08 14.23L4.08 3.86Q3.02 4.34 2.38 5.00Q1.73 5.66 1.73 6.26Q1.73 6.86 1.87 7.30L1.87 7.30Q1.73 7.58 1.22 7.58Q0.72 7.58 0.36 7.22Q0 6.86 0 6.26L0 6.26Q0 5.14 1.13 4.03Q2.26 2.93 4.08 2.38L4.08 2.38L4.08 1.46Q4.08 0.74 4.44 0.37Q4.80 0 5.33 0Q5.86 0 6.24 0.34L6.24 0.34ZM8.78 12.65Q11.06 12.65 12.19 11.44Q13.32 10.22 13.32 7.96Q13.32 5.69 11.68 4.40Q10.03 3.12 6.98 3.12L6.98 3.12Q6.60 3.12 6.31 3.19L6.31 3.19L6.31 12.12Q7.54 12.65 8.78 12.65L8.78 12.65ZM3.24 21.53L3.24 21.53Q3.74 21.53 3.91 20.35Q4.08 19.18 4.08 15.36L4.08 15.36Q2.38 17.45 2.38 19.49Q2.38 21.53 3.24 21.53ZM23.02 9.24L23.02 9.24Q23.33 8.54 24.01 8.54Q24.70 8.54 25.03 8.88L25.03 8.88L25.03 15.77Q25.03 17.14 25.46 17.83Q25.90 18.53 26.64 18.53L26.64 18.53Q28.90 18.53 28.90 13.85L28.90 13.85Q28.92 13.70 29.26 13.70L29.26 13.70Q29.69 13.70 29.69 14.98L29.69 14.98Q29.69 17.02 28.81 18.24Q27.94 19.46 26.35 19.46L26.35 19.46Q23.93 19.46 23.14 17.33L23.14 17.33Q22.68 18.31 21.89 18.89Q21.10 19.46 20.09 19.46L20.09 19.46Q15.89 19.46 15.89 13.97L15.89 13.97Q15.89 11.18 17.20 9.86Q18.50 8.54 20.66 8.54L20.66 8.54Q22.32 8.54 23.02 9.24ZM18.50 16.92Q18.84 17.98 19.27 18.25Q19.70 18.53 20.42 18.53Q21.14 18.53 22.00 17.63Q22.85 16.73 22.85 15.29L22.85 15.29L22.85 12Q22.85 10.87 22.26 10.18Q21.67 9.48 20.94 9.48Q20.21 9.48 19.78 9.62Q19.34 9.77 18.96 10.22L18.96 10.22Q18.17 11.09 18.17 13.97L18.17 13.97Q18.17 15.86 18.50 16.92ZM33.38 14.57Q32.42 14.23 31.48 13.86Q30.53 13.49 29.88 12.79Q29.23 12.10 29.23 11.00Q29.23 9.91 30.24 9.23Q31.25 8.54 33.18 8.54Q35.11 8.54 36.20 9.22Q37.30 9.89 37.30 10.78L37.30 10.78Q37.30 11.21 36.97 11.47Q36.65 11.74 36.34 11.74L36.34 11.74Q35.74 11.74 35.54 11.45L35.54 11.45Q35.69 11.28 35.69 10.79Q35.69 10.30 34.94 9.89Q34.20 9.48 33.29 9.48Q32.38 9.48 31.78 9.82Q31.18 10.15 31.18 10.84Q31.18 11.52 31.86 12.02Q32.54 12.53 33.52 12.86Q34.49 13.20 35.46 13.58Q36.43 13.97 37.12 14.68Q37.80 15.38 37.80 16.42L37.80 16.42Q37.80 17.95 36.47 18.71Q35.14 19.46 32.96 19.46Q30.79 19.46 29.44 18.20Q28.08 16.94 28.08 15.07L28.08 15.07Q28.08 14.40 28.34 14.02Q28.61 13.63 28.94 13.63L28.94 13.63Q29.57 13.63 29.66 13.85L29.66 13.85L29.71 13.92Q29.57 14.28 29.57 14.81L29.57 14.81Q29.57 16.42 30.50 17.47Q31.44 18.53 33.10 18.53L33.10 18.53Q35.64 18.53 35.66 16.73L35.66 16.73Q35.66 15.36 33.38 14.57L33.38 14.57ZM39.22 6.46Q39.22 5.74 39.58 5.36Q39.94 4.99 40.49 4.99Q41.04 4.99 41.38 5.33L41.38 5.33L41.38 8.88L44.66 8.88Q45.17 8.88 45.32 9.07Q45.48 9.26 45.48 9.72L45.48 9.72L41.38 9.72L41.38 15.77Q41.38 17.09 42.13 17.81Q42.89 18.53 43.87 18.53L43.87 18.53Q45.36 18.53 46.06 17.42Q46.75 16.32 46.75 13.85L46.75 13.85Q46.80 13.70 47.11 13.70L47.11 13.70Q47.54 13.70 47.54 14.98L47.54 14.98Q47.54 16.92 46.57 18.19Q45.60 19.46 43.58 19.46Q41.57 19.46 40.39 18.41Q39.22 17.35 39.22 15.26L39.22 15.26L39.22 6.46ZM56.88 13.99L56.88 13.99Q57.38 13.99 57.38 14.76L57.38 14.76Q57.38 16.54 56.15 18Q54.91 19.46 52.39 19.46Q49.87 19.46 48.35 18.11Q46.82 16.75 46.82 14.12Q46.82 11.50 48.17 10.02Q49.51 8.54 51.60 8.54L51.60 8.54Q53.11 8.54 53.81 9.35Q54.50 10.15 54.50 11.26L54.50 11.26Q54.50 13.06 53.00 14.24Q51.50 15.43 49.18 15.43L49.18 15.43Q49.39 16.97 50.29 17.75Q51.19 18.53 52.67 18.53Q54.14 18.53 55.33 17.41Q56.52 16.30 56.52 14.14L56.52 14.14Q56.54 13.99 56.88 13.99ZM49.10 14.33L49.10 14.33L49.10 14.54Q50.59 14.35 51.68 13.61Q52.78 12.86 52.78 11.40L52.78 11.40Q52.78 10.46 52.37 9.97Q51.96 9.48 51.22 9.48L51.22 9.48Q50.09 9.48 49.60 10.58Q49.10 11.69 49.10 14.33ZM63.62 13.70L63.62 13.70Q64.06 13.70 64.06 14.98L64.06 14.98Q64.06 16.82 63.05 18.14Q62.04 19.46 60.48 19.46L60.48 19.46Q58.54 19.46 57.58 18.31Q56.62 17.16 56.62 15.05L56.62 15.05L56.62 6.02Q56.62 2.93 57.26 1.49Q57.91 0.05 59.54 0.05L59.54 0.05Q61.92 0.05 61.92 3.26L61.92 3.26Q61.92 5.69 60.97 7.15Q60.02 8.62 58.80 9.34L58.80 9.34L58.80 15.77Q58.80 17.14 59.33 17.83Q59.86 18.53 60.77 18.53Q61.68 18.53 62.47 17.42Q63.26 16.32 63.26 13.85L63.26 13.85Q63.31 13.70 63.62 13.70ZM60.89 3.29L60.89 3.29Q60.89 0.98 59.74 0.98L59.74 0.98Q59.45 0.98 59.29 1.18Q59.14 1.37 59.02 2.14L59.02 2.14Q58.80 3.31 58.80 8.33L58.80 8.33Q60.89 6.82 60.89 3.29ZM69.36 18L69.36 18L69.36 12.24Q69.36 9.38 67.92 9.38L67.92 9.38Q66.72 9.38 66.08 10.70Q65.45 12.02 65.45 15.36L65.45 15.36L65.45 19.13Q65.21 19.46 64.61 19.46Q64.01 19.46 63.65 19.09Q63.29 18.72 63.29 18L63.29 18L63.29 8.88Q63.53 8.54 64.13 8.54Q64.73 8.54 65.09 8.92Q65.45 9.29 65.45 10.01L65.45 10.01Q66.26 8.54 68.21 8.54L68.21 8.54Q70.49 8.54 71.28 10.49L71.28 10.49Q72.10 8.54 74.33 8.54L74.33 8.54Q75.89 8.54 76.81 9.53Q77.74 10.51 77.74 12.36L77.74 12.36L77.74 15.77Q77.74 17.14 78.17 17.83Q78.60 18.53 79.45 18.53Q80.30 18.53 80.95 17.46Q81.60 16.39 81.60 13.85L81.60 13.85Q81.62 13.70 81.96 13.70L81.96 13.70Q82.39 13.70 82.39 14.98L82.39 14.98Q82.39 17.02 81.52 18.24Q80.64 19.46 78.96 19.46Q77.28 19.46 76.38 18.31Q75.48 17.16 75.48 15.05L75.48 15.05L75.48 12.24Q75.48 9.38 74.04 9.38L74.04 9.38Q71.59 9.38 71.59 15.41L71.59 15.41L71.59 19.13Q71.35 19.46 70.74 19.46Q70.13 19.46 69.74 19.09Q69.36 18.72 69.36 18ZM88.75 9.24L88.75 9.24Q89.06 8.54 89.75 8.54Q90.43 8.54 90.77 8.88L90.77 8.88L90.77 15.77Q90.77 17.14 91.20 17.83Q91.63 18.53 92.38 18.53L92.38 18.53Q94.63 18.53 94.63 13.85L94.63 13.85Q94.66 13.70 94.99 13.70L94.99 13.70Q95.42 13.70 95.42 14.98L95.42 14.98Q95.42 17.02 94.55 18.24Q93.67 19.46 92.09 19.46L92.09 19.46Q89.66 19.46 88.87 17.33L88.87 17.33Q88.42 18.31 87.62 18.89Q86.83 19.46 85.82 19.46L85.82 19.46Q81.62 19.46 81.62 13.97L81.62 13.97Q81.62 11.18 82.93 9.86Q84.24 8.54 86.40 8.54L86.40 8.54Q88.06 8.54 88.75 9.24ZM84.24 16.92Q84.58 17.98 85.01 18.25Q85.44 18.53 86.16 18.53Q86.88 18.53 87.73 17.63Q88.58 16.73 88.58 15.29L88.58 15.29L88.58 12Q88.58 10.87 88.00 10.18Q87.41 9.48 86.68 9.48Q85.94 9.48 85.51 9.62Q85.08 9.77 84.70 10.22L84.70 10.22Q83.90 11.09 83.90 13.97L83.90 13.97Q83.90 15.86 84.24 16.92ZM107.66 13.70L107.66 13.70Q108.10 13.70 108.10 14.98L108.10 14.98Q108.10 17.02 107.22 18.24Q106.34 19.46 104.66 19.46Q102.98 19.46 102.08 18.31Q101.18 17.16 101.18 15.05L101.18 15.05L101.18 12.24Q101.18 9.38 99.74 9.38L99.74 9.38Q98.47 9.38 97.66 10.68Q96.84 11.98 96.84 15.02L96.84 15.02L96.84 19.13Q96.60 19.46 96.00 19.46Q95.40 19.46 95.04 19.09Q94.68 18.72 94.68 18L94.68 18L94.68 8.88Q94.92 8.54 95.59 8.54L95.59 8.54Q96.84 8.54 96.84 10.34L96.84 10.34Q97.85 8.54 100.03 8.54L100.03 8.54Q101.59 8.54 102.52 9.53Q103.44 10.51 103.44 12.36L103.44 12.36L103.44 15.77Q103.44 17.14 103.87 17.83Q104.30 18.53 105.16 18.53Q106.01 18.53 106.66 17.46Q107.30 16.39 107.30 13.85L107.30 13.85Q107.33 13.70 107.66 13.70ZM107.52 6.19Q107.11 5.78 107.11 5.18Q107.11 4.58 107.52 4.16Q107.93 3.74 108.53 3.74Q109.13 3.74 109.55 4.16Q109.97 4.58 109.97 5.18Q109.97 5.78 109.55 6.19Q109.13 6.60 108.53 6.60Q107.93 6.60 107.52 6.19ZM107.42 10.01Q107.42 9.29 107.78 8.92Q108.14 8.54 108.70 8.54Q109.25 8.54 109.58 8.88L109.58 8.88L109.58 15.77Q109.58 17.14 110.11 17.83Q110.64 18.53 111.55 18.53Q112.46 18.53 113.26 17.42Q114.05 16.32 114.05 13.85L114.05 13.85Q114.10 13.70 114.41 13.70L114.41 13.70Q114.84 13.70 114.84 14.98L114.84 14.98Q114.84 16.82 113.83 18.14Q112.82 19.46 111.26 19.46L111.26 19.46Q109.32 19.46 108.37 18.31Q107.42 17.16 107.42 15.05L107.42 15.05L107.42 10.01ZM121.22 9.24L121.22 9.24Q121.54 8.54 122.22 8.54Q122.90 8.54 123.24 8.88L123.24 8.88L123.24 15.77Q123.24 17.14 123.67 17.83Q124.10 18.53 124.85 18.53L124.85 18.53Q127.10 18.53 127.10 13.85L127.10 13.85Q127.13 13.70 127.46 13.70L127.46 13.70Q127.90 13.70 127.90 14.98L127.90 14.98Q127.90 17.02 127.02 18.24Q126.14 19.46 124.56 19.46L124.56 19.46Q122.14 19.46 121.34 17.33L121.34 17.33Q120.89 18.31 120.10 18.89Q119.30 19.46 118.30 19.46L118.30 19.46Q114.10 19.46 114.10 13.97L114.10 13.97Q114.10 11.18 115.40 9.86Q116.71 8.54 118.87 8.54L118.87 8.54Q120.53 8.54 121.22 9.24ZM116.71 16.92Q117.05 17.98 117.48 18.25Q117.91 18.53 118.63 18.53Q119.35 18.53 120.20 17.63Q121.06 16.73 121.06 15.29L121.06 15.29L121.06 12Q121.06 10.87 120.47 10.18Q119.88 9.48 119.15 9.48Q118.42 9.48 117.98 9.62Q117.55 9.77 117.17 10.22L117.17 10.22Q116.38 11.09 116.38 13.97L116.38 13.97Q116.38 15.86 116.71 16.92Z" transform="translate(52 14.768)"></path></svg>